# File created by Blade
# Date/Time:  Wed Jan 21 17:41:14 2015
# Frame Rate: 120.000 fps
#------------------------------------------------------
:FULLY-SPECIFIED
:DEGREES
630
root 18.476499 26.260682 -22.179563 -31.714600 76.727666 -108.193747
Spine 45.409010 4.354083 10.390895
Head -0.804359 4.533475 -7.813481
LeftShoulder 2.532662 -42.949978 16.865778
LeftArm 56.006650 1.148578 -38.832775
LeftForeArm 9.062997 -0.000000 16.085387
LeftHand 4.218919 -0.000000 68.341935
LeftHandThumb1 -26.253704 0.000000 33.147579
RightShoulder 12.556191 11.555752 -35.163945
RightArm 77.038112 26.435033 63.947425
RightForeArm -41.525086 -0.000000 41.624106
RightHand -10.627060 -0.000000 -59.277529
RightHandThumb1 -24.326973 -0.000000 -32.862282
LeftUpLeg -13.306537 7.712025 9.505504
LeftLeg -1.237835 -0.000000 0.000000
LeftFoot 1.429131 25.370973 -9.234399
LeftToeBase 6.376854 -0.000000 -0.000000
RightUpLeg -106.433609 14.530651 10.867594
RightLeg 87.282800 -0.000000 -0.000000
RightFoot -54.902045 -20.151307 24.949781
RightToeBase 11.067220 -0.000000 -0.000000
631
root 18.368444 26.078758 -22.247070 -31.356551 76.332285 -107.478964
Spine 45.208773 4.573474 10.853613
Head 0.308090 3.286475 -7.726615
LeftShoulder 2.554490 -42.744032 16.626833
LeftArm 55.987854 1.531880 -39.044119
LeftForeArm 8.861330 0.000000 16.098297
LeftHand 4.229557 -0.000000 68.588721
LeftHandThumb1 -26.253704 0.000000 33.147579
RightShoulder 12.710420 11.291837 -35.253191
RightArm 76.668735 26.271698 64.206360
RightForeArm -41.953678 -0.000000 42.562187
RightHand -11.127870 -0.000000 -58.173155
RightHandThumb1 -24.326973 -0.000000 -32.862282
LeftUpLeg -12.802342 7.929005 9.459706
LeftLeg -1.317513 -0.000000 0.000000
LeftFoot 1.291193 25.623465 -9.531886
LeftToeBase 5.364595 -0.000000 -0.000000
RightUpLeg -106.606862 14.625969 11.300545
RightLeg 88.184058 -0.000000 -0.000000
RightFoot -54.944148 -19.938394 24.927541
RightToeBase 10.923797 -0.000000 -0.000000
632
root 18.257834 25.903714 -22.314923 -31.054429 75.969064 -106.854229
Spine 45.012273 4.703782 11.258388
Head 1.193754 1.977477 -7.711231
LeftShoulder 2.388135 -42.444942 16.469289
LeftArm 56.120298 1.807154 -39.307574
LeftForeArm 8.709534 -0.000000 16.087479
LeftHand 4.199951 -0.000000 68.794404
LeftHandThumb1 -26.253704 0.000000 33.147579
RightShoulder 12.810407 11.150357 -35.394780
RightArm 76.718100 25.990634 65.075676
RightForeArm -42.783321 -0.000000 43.033533
RightHand -11.171105 -0.000000 -57.437019
RightHandThumb1 -24.326973 -0.000000 -32.862282
LeftUpLeg -12.393262 8.083046 9.418448
LeftLeg -1.317728 -0.000000 0.000000
LeftFoot 1.000307 25.957968 -9.327093
LeftToeBase 5.505337 -0.000000 -0.000000
RightUpLeg -106.815819 14.705568 11.658559
RightLeg 89.046178 -0.000000 -0.000000
RightFoot -54.972900 -19.755462 24.885271
RightToeBase 10.838164 -0.000000 -0.000000
633
root 18.149516 25.732717 -22.384425 -30.754180 75.603917 -106.231231
Spine 44.826304 4.899505 11.699479
Head 2.053186 0.596731 -7.678028
LeftShoulder 2.285715 -42.467479 16.341367
LeftArm 56.016656 2.229888 -39.842638
LeftForeArm 8.716894 -0.000000 16.083857
LeftHand 4.255357 -0.000000 68.820958
LeftHandThumb1 -26.253704 0.000000 33.147579
RightShoulder 12.874283 11.092823 -35.446035
RightArm 76.550328 25.678293 65.514937
RightForeArm -43.328182 -0.000000 43.335922
RightHand -11.267708 -0.000000 -56.944065
RightHandThumb1 -24.326973 -0.000000 -32.862282
LeftUpLeg -12.007038 8.336855 9.365934
LeftLeg -1.313081 -0.000000 0.000000
LeftFoot 0.809608 26.106385 -9.232550
LeftToeBase 5.200417 -0.000000 -0.000000
RightUpLeg -107.025929 14.790739 11.955419
RightLeg 89.876992 -0.000000 -0.000000
RightFoot -55.093544 -19.507292 24.959563
RightToeBase 10.966717 -0.000000 -0.000000
634
root 18.042477 25.565010 -22.454615 -30.600585 75.282242 -105.706876
Spine 44.743036 5.036789 12.126692
Head 2.736128 -0.950405 -7.684710
LeftShoulder 2.143321 -42.192977 16.214445
LeftArm 56.240696 2.389755 -40.290504
LeftForeArm 8.584432 -0.000000 15.950060
LeftHand 4.342831 -0.000000 69.046265
LeftHandThumb1 -26.253704 0.000000 33.147579
RightShoulder 12.913168 11.086433 -35.501410
RightArm 76.372237 25.374044 65.870960
RightForeArm -43.535177 -0.000000 43.470536
RightHand -10.932249 -0.000000 -56.896886
RightHandThumb1 -24.326973 -0.000000 -32.862282
LeftUpLeg -11.605551 8.532898 9.316710
LeftLeg -1.301805 -0.000000 0.000000
LeftFoot 0.727800 26.305113 -8.982213
LeftToeBase 4.783911 -0.000000 -0.000000
RightUpLeg -107.191300 14.828320 12.216290
RightLeg 90.714088 -0.000000 -0.000000
RightFoot -55.100626 -19.294118 24.923666
RightToeBase 10.892325 -0.000000 -0.000000
635
root 17.948120 25.401958 -22.517059 -30.834063 74.849903 -105.435168
Spine 44.866423 5.122685 12.675413
Head 3.396566 -2.427684 -7.818357
LeftShoulder 2.058383 -42.188207 16.060285
LeftArm 56.134061 2.543251 -40.925302
LeftForeArm 8.622901 -0.000000 15.950438
LeftHand 4.385269 -0.000000 69.098368
LeftHandThumb1 -26.253704 0.000000 33.147579
RightShoulder 12.988553 11.205420 -35.579028
RightArm 76.142354 25.085440 65.974509
RightForeArm -43.834184 -0.000000 43.354334
RightHand -10.710168 -0.000000 -57.057543
RightHandThumb1 -24.326973 -0.000000 -32.862282
LeftUpLeg -11.045654 8.805319 9.422102
LeftLeg -1.300780 -0.000000 0.000000
LeftFoot 0.681071 26.373844 -8.669614
LeftToeBase 4.224738 -0.000000 -0.000000
RightUpLeg -107.148876 14.921738 12.587889
RightLeg 91.498719 -0.000000 -0.000000
RightFoot -55.081894 -19.074732 24.930411
RightToeBase 10.793558 -0.000000 -0.000000
636
root 17.844863 25.245198 -22.586536 -30.787594 74.544879 -104.984925
Spine 44.843191 5.156080 13.052061
Head 4.096633 -4.011304 -7.972670
LeftShoulder 1.932022 -42.012670 15.951274
LeftArm 56.160917 2.583646 -41.518461
LeftForeArm 8.525649 -0.000000 15.932153
LeftHand 4.413510 -0.000000 69.130439
LeftHandThumb1 -26.253704 0.000000 33.147579
RightShoulder 13.076440 11.384252 -35.614008
RightArm 75.850742 24.737712 66.020727
RightForeArm -43.958781 -0.000000 43.172696
RightHand -10.428471 -0.000000 -57.261691
RightHandThumb1 -24.326973 -0.000000 -32.862282
LeftUpLeg -10.684655 8.904866 9.407893
LeftLeg -1.226958 -0.000000 0.000000
LeftFoot 0.526316 26.563935 -8.517910
LeftToeBase 3.819366 -0.000000 -0.000000
RightUpLeg -107.304386 14.950880 12.773540
RightLeg 92.321062 -0.000000 -0.000000
RightFoot -54.926786 -18.980682 24.789406
RightToeBase 10.660695 -0.000000 -0.000000
637
root 17.733538 25.093433 -22.669005 -30.555721 74.333469 -104.451153
Spine 44.656643 5.244601 13.430047
Head 4.949241 -5.949304 -8.164175
LeftShoulder 2.058173 -42.194700 15.792259
LeftArm 55.772465 2.782412 -42.336753
LeftForeArm 8.613659 0.000000 16.026729
LeftHand 4.402424 -0.000000 69.248868
LeftHandThumb1 -26.253704 0.000000 33.147579
RightShoulder 13.113977 11.368836 -35.539628
RightArm 75.689144 24.437834 65.860140
RightForeArm -44.033144 -0.000000 42.853273
RightHand -10.333501 -0.000000 -57.797161
RightHandThumb1 -24.326973 -0.000000 -32.862282
LeftUpLeg -10.495948 8.965589 9.293051
LeftLeg -1.141579 -0.000000 0.000000
LeftFoot 0.209374 26.760003 -8.575828
LeftToeBase 3.403426 -0.000000 -0.000000
RightUpLeg -107.646122 14.924912 12.840242
RightLeg 93.178556 -0.000000 -0.000000
RightFoot -54.696029 -18.820782 24.718918
RightToeBase 10.434582 -0.000000 -0.000000
638
root 17.629737 24.937126 -22.750838 -30.646867 74.115814 -104.092886
Spine 44.710600 5.221113 13.894661
Head 5.617245 -7.642161 -8.554480
LeftShoulder 2.114155 -42.350189 15.559738
LeftArm 55.560065 2.971714 -42.926506
LeftForeArm 8.653726 0.000000 15.928254
LeftHand 4.526213 -0.000000 69.434672
LeftHandThumb1 -26.253704 0.000000 33.147579
RightShoulder 12.999101 11.508992 -35.657186
RightArm 75.492978 24.048955 65.835615
RightForeArm -44.269770 0.000000 42.576463
RightHand -10.296174 -0.000000 -57.903137
RightHandThumb1 -24.326973 -0.000000 -32.862282
LeftUpLeg -10.151539 9.006723 9.244223
LeftLeg -1.111576 -0.000000 0.000000
LeftFoot -0.351998 26.968954 -9.058672
LeftToeBase 2.996927 -0.000000 -0.000000
RightUpLeg -107.837914 14.808775 13.064721
RightLeg 94.087236 -0.000000 -0.000000
RightFoot -54.398666 -18.547934 24.664053
RightToeBase 10.154814 -0.000000 -0.000000
639
root 17.519941 24.790206 -22.832883 -30.466296 73.892261 -103.549757
Spine 44.610268 5.245230 14.225993
Head 6.486160 -9.250466 -8.919021
LeftShoulder 2.225602 -42.368359 15.300999
LeftArm 55.401363 3.116135 -43.331120
LeftForeArm 8.581821 -0.000000 15.857661
LeftHand 4.496264 0.000000 69.550498
LeftHandThumb1 -26.253704 0.000000 33.147579
RightShoulder 13.035576 11.596027 -35.634557
RightArm 75.265909 23.741404 65.623963
RightForeArm -44.262189 0.000000 42.316734
RightHand -10.138873 -0.000000 -57.828373
RightHandThumb1 -24.326973 -0.000000 -32.862282
LeftUpLeg -9.953950 9.155528 9.130976
LeftLeg -1.044482 -0.000000 0.000000
LeftFoot -1.159395 27.156714 -9.404418
LeftToeBase 2.556618 -0.000000 -0.000000
RightUpLeg -108.132038 14.798338 13.139306
RightLeg 94.926980 -0.000000 -0.000000
RightFoot -54.109977 -18.440301 24.634095
RightToeBase 9.978734 -0.000000 -0.000000
640
root 17.407910 24.646367 -22.910497 -30.342526 73.735259 -102.720715
Spine 44.964380 4.173173 13.788075
Head 6.693323 -9.484117 -10.083577
LeftShoulder 1.036002 -40.471965 15.656833
LeftArm 56.289806 1.992423 -42.682772
LeftForeArm 7.785863 0.000000 15.850161
LeftHand 4.603640 -0.000000 69.581997
LeftHandThumb1 -26.253704 0.000000 33.147579
RightShoulder 13.919189 12.751752 -36.141994
RightArm 74.983896 23.393623 66.049975
RightForeArm -44.506475 -0.000000 42.098337
RightHand -10.083501 -0.000000 -57.709426
RightHandThumb1 -24.326973 -0.000000 -32.862282
LeftUpLeg -9.446541 9.245055 8.981505
LeftLeg -1.037314 -0.000000 0.000000
LeftFoot -1.878972 27.269053 -9.989564
LeftToeBase 2.508541 -0.000000 -0.000000
RightUpLeg -108.138290 14.728570 13.165383
RightLeg 95.772104 -0.000000 -0.000000
RightFoot -53.793702 -18.445072 24.568361
RightToeBase 9.860291 -0.000000 -0.000000
